<svg xmlns="http://www.w3.org/2000/svg" xmlns:xlink="http://www.w3.org/1999/xlink" xml:space="preserve" version="1.1"
     style="shape-rendering:geometricPrecision;text-rendering:geometricPrecision;image-rendering:optimizeQuality;"
     viewBox="0 0 255 438.75" x="0px" y="0px" fill-rule="evenodd" clip-rule="evenodd"><defs><style type="text/css">
  </style></defs>
    <g><path fill="#FF473A" class="fil0" d="M128 0c70,0 127,57 127,128 0,63 -66,149 -111,214 -8,12 -25,12 -33,0 -44,-65 -111,-151 -111,-214 0,-71 57,-128 128,-128zm0 85c23,0 42,19 42,43 0,23 -19,42 -42,42 -24,0 -43,-19 -43,-42 0,-24 19,-43 43,-43z"/></g>
</svg>
